<svg width="38" height="37" viewBox="0 0 38 37" fill="none" xmlns="http://www.w3.org/2000/svg">
<path d="M18.0472 0.927049C18.3466 0.00573802 19.65 0.00574017 19.9493 0.927051L23.7131 12.5106C23.847 12.9227 24.2309 13.2016 24.6641 13.2016H36.8439C37.8126 13.2016 38.2153 14.4412 37.4316 15.0106L27.578 22.1697C27.2276 22.4243 27.0809 22.8757 27.2148 23.2877L30.9785 34.8713C31.2779 35.7926 30.2234 36.5588 29.4397 35.9894L19.5861 28.8303C19.2356 28.5757 18.761 28.5757 18.4105 28.8303L8.55691 35.9894C7.7732 36.5588 6.71872 35.7926 7.01807 34.8713L10.7818 23.2877C10.9157 22.8757 10.769 22.4243 10.4185 22.1697L0.564944 15.0106C-0.21877 14.4412 0.184008 13.2016 1.15273 13.2016H13.3324C13.7657 13.2016 14.1496 12.9227 14.2835 12.5106L18.0472 0.927049Z" fill="#FFB800"/>
</svg>
