<svg width="25" height="25" viewBox="0 0 25 25" fill="none" xmlns="http://www.w3.org/2000/svg">
<path d="M6.66634 21.25C6.31912 21.3889 5.98926 21.3583 5.67676 21.1583C5.36426 20.959 5.20801 20.6684 5.20801 20.2865V5.20833C5.20801 4.63542 5.41217 4.14479 5.82051 3.73646C6.22815 3.32882 6.71842 3.125 7.29134 3.125H13.5413V5.20833H7.29134V18.6979L12.4997 16.4583L17.708 18.6979V11.4583H19.7913V20.2865C19.7913 20.6684 19.6351 20.959 19.3226 21.1583C19.0101 21.3583 18.6802 21.3889 18.333 21.25L12.4997 18.75L6.66634 21.25ZM7.29134 5.20833H13.5413H12.4997H7.29134ZM18.7497 9.375C18.4545 9.375 18.2073 9.275 18.008 9.075C17.808 8.87569 17.708 8.62847 17.708 8.33333V7.29167H16.6663C16.3712 7.29167 16.124 7.19201 15.9247 6.99271C15.7247 6.79271 15.6247 6.54514 15.6247 6.25C15.6247 5.95486 15.7247 5.70729 15.9247 5.50729C16.124 5.30799 16.3712 5.20833 16.6663 5.20833H17.708V4.16667C17.708 3.87153 17.808 3.62396 18.008 3.42396C18.2073 3.22465 18.4545 3.125 18.7497 3.125C19.0448 3.125 19.292 3.22465 19.4913 3.42396C19.6913 3.62396 19.7913 3.87153 19.7913 4.16667V5.20833H20.833C21.1281 5.20833 21.3754 5.30799 21.5747 5.50729C21.7747 5.70729 21.8747 5.95486 21.8747 6.25C21.8747 6.54514 21.7747 6.79271 21.5747 6.99271C21.3754 7.19201 21.1281 7.29167 20.833 7.29167H19.7913V8.33333C19.7913 8.62847 19.6913 8.87569 19.4913 9.075C19.292 9.275 19.0448 9.375 18.7497 9.375Z" fill="#39007E"/>
</svg>
