<svg width="34" height="34" viewBox="0 0 34 34" fill="none" xmlns="http://www.w3.org/2000/svg">
<path d="M25.1326 10.8426C24.8713 10.8426 24.6263 10.8018 24.3977 10.7201C24.1691 10.6397 23.9568 10.5023 23.7608 10.3078L20.9683 7.53634C20.5764 7.14736 20.3804 6.68514 20.3804 6.14965C20.3804 5.61546 20.5764 5.17009 20.9683 4.81353C21.3276 4.42456 21.7848 4.23007 22.3401 4.23007C22.8953 4.23007 23.3525 4.40835 23.7118 4.76491L25.1326 6.17493L30.6686 0.63208C31.0605 0.243108 31.5178 0.0486217 32.0403 0.0486217C32.5629 0.0486217 33.0365 0.243108 33.4611 0.63208C33.8204 1.02105 34 1.49106 34 2.0421C34 2.59315 33.8204 3.04695 33.4611 3.40351L26.5043 10.3078C26.3084 10.5023 26.0961 10.6397 25.8674 10.7201C25.6388 10.8018 25.3939 10.8426 25.1326 10.8426ZM2.74352 33.8406C2.0903 34.0999 1.46974 34.0429 0.881844 33.6694C0.293948 33.2973 0 32.7547 0 32.0416V3.88972C0 2.82005 0.384092 1.90402 1.15228 1.14163C1.91915 0.380544 2.8415 0 3.91931 0H17.6369C16.9837 0.972431 16.4938 1.90467 16.1671 2.79671C15.8405 3.68746 15.6772 4.70008 15.6772 5.83458C15.6772 8.16842 16.4199 10.2267 17.9054 12.0095C19.3921 13.7923 21.2622 14.9106 23.5158 15.3644C24.267 15.4616 24.9203 15.5103 25.4755 15.5103C26.0307 15.5103 26.684 15.4616 27.4352 15.3644V32.0416C27.4352 32.7547 27.1412 33.2973 26.5533 33.6694C25.9654 34.0429 25.3449 34.0999 24.6916 33.8406L13.7176 29.1729L2.74352 33.8406Z" fill="#39007E"/>
</svg>
