<svg width="25" height="25" viewBox="0 0 25 25" fill="none" xmlns="http://www.w3.org/2000/svg">
<path d="M5.20898 5.20833C5.20898 4.0625 6.14648 3.125 7.29232 3.125H14.584C13.9277 4 13.5423 5.07292 13.5423 6.25C13.5423 9.125 15.8757 11.4583 18.7507 11.4583C19.1048 11.4583 19.459 11.4271 19.7923 11.3542V20.2917C19.7923 21.0417 19.0319 21.5417 18.3444 21.25L12.5007 18.75L6.6569 21.25C5.9694 21.5521 5.20898 21.0417 5.20898 20.2917V5.20833ZM22.9902 3.47917C23.3965 3.88542 23.3965 4.54167 22.9902 4.94792L19.3027 8.63542C18.8965 9.04167 18.2402 9.04167 17.834 8.63542L16.3652 7.16667C16.2687 7.07031 16.192 6.95584 16.1398 6.82983C16.0875 6.70381 16.0606 6.56872 16.0606 6.43229C16.0606 6.29586 16.0875 6.16077 16.1398 6.03476C16.192 5.90874 16.2687 5.79428 16.3652 5.69792C16.7715 5.29167 17.4277 5.29167 17.834 5.69792L18.5736 6.4375L21.5215 3.48958C21.9277 3.07292 22.584 3.07292 22.9902 3.47917Z" fill="#39007E"/>
</svg>
