<svg width="54" height="54" viewBox="0 0 54 54" fill="none" xmlns="http://www.w3.org/2000/svg">
<path d="M33.885 39.285L24.3 29.7V16.2H29.7V27.4725L37.665 35.4375L33.885 39.285ZM24.3 10.8V5.4H29.7V10.8H24.3ZM43.2 29.7V24.3H48.6V29.7H43.2ZM24.3 48.6V43.2H29.7V48.6H24.3ZM5.4 29.7V24.3H10.8V29.7H5.4ZM27 54C23.265 54 19.755 53.2908 16.47 51.8724C13.185 50.4558 10.3275 48.5325 7.8975 46.1025C5.4675 43.6725 3.5442 40.815 2.1276 37.53C0.7092 34.245 0 30.735 0 27C0 23.265 0.7092 19.755 2.1276 16.47C3.5442 13.185 5.4675 10.3275 7.8975 7.8975C10.3275 5.4675 13.185 3.5433 16.47 2.1249C19.755 0.7083 23.265 0 27 0C30.735 0 34.245 0.7083 37.53 2.1249C40.815 3.5433 43.6725 5.4675 46.1025 7.8975C48.5325 10.3275 50.4558 13.185 51.8724 16.47C53.2908 19.755 54 23.265 54 27C54 30.735 53.2908 34.245 51.8724 37.53C50.4558 40.815 48.5325 43.6725 46.1025 46.1025C43.6725 48.5325 40.815 50.4558 37.53 51.8724C34.245 53.2908 30.735 54 27 54ZM27 48.6C33.03 48.6 38.1375 46.5075 42.3225 42.3225C46.5075 38.1375 48.6 33.03 48.6 27C48.6 20.97 46.5075 15.8625 42.3225 11.6775C38.1375 7.4925 33.03 5.4 27 5.4C20.97 5.4 15.8625 7.4925 11.6775 11.6775C7.4925 15.8625 5.4 20.97 5.4 27C5.4 33.03 7.4925 38.1375 11.6775 42.3225C15.8625 46.5075 20.97 48.6 27 48.6Z" fill="#39007E"/>
</svg>
