<svg width="31" height="31" viewBox="0 0 31 31" fill="none" xmlns="http://www.w3.org/2000/svg">
<path d="M15.4999 2.58337C13.8037 2.58337 12.1241 2.91747 10.557 3.5666C8.98983 4.21572 7.56591 5.16715 6.36649 6.36658C3.94414 8.78892 2.58328 12.0743 2.58328 15.5C2.57199 18.4827 3.60472 21.3752 5.50245 23.6763L2.91912 26.2596C2.73989 26.4413 2.61848 26.6719 2.5702 26.9225C2.52193 27.1731 2.54895 27.4323 2.64787 27.6675C2.75515 27.8999 2.92907 28.0952 3.14754 28.2286C3.36602 28.362 3.6192 28.4275 3.87495 28.4167H15.4999C18.9257 28.4167 22.2111 27.0558 24.6334 24.6335C27.0558 22.2112 28.4166 18.9258 28.4166 15.5C28.4166 12.0743 27.0558 8.78892 24.6334 6.36658C22.2111 3.94423 18.9257 2.58337 15.4999 2.58337ZM15.4999 25.8334H6.98787L8.18912 24.6321C8.42969 24.3901 8.56472 24.0627 8.56472 23.7215C8.56472 23.3803 8.42969 23.0529 8.18912 22.8109C6.49779 21.1214 5.44455 18.8978 5.20884 16.5189C4.97313 14.14 5.56954 11.7529 6.89645 9.76442C8.22336 7.77592 10.1987 6.309 12.4859 5.61359C14.7731 4.91817 17.2306 5.03729 19.4398 5.95064C21.649 6.86399 23.4732 8.51506 24.6016 10.6226C25.73 12.7301 26.0927 15.1636 25.6281 17.5086C25.1634 19.8536 23.9001 21.9649 22.0533 23.4829C20.2065 25.0008 17.8905 25.8315 15.4999 25.8334Z" fill="#39007E"/>
</svg>
