<svg width="34" height="37" viewBox="0 0 34 37" fill="none" xmlns="http://www.w3.org/2000/svg">
<path d="M3.33268 36.5C2.63824 36.7778 1.97852 36.7167 1.35352 36.3167C0.728515 35.9181 0.416016 35.3368 0.416016 34.5729V4.41667C0.416016 3.27083 0.824349 2.28958 1.64102 1.47292C2.45629 0.657639 3.43685 0.25 4.58268 0.25H17.0827V4.41667H4.58268V31.3958L14.9993 26.9167L25.416 31.3958V16.9167H29.5827V34.5729C29.5827 35.3368 29.2702 35.9181 28.6452 36.3167C28.0202 36.7167 27.3605 36.7778 26.666 36.5L14.9993 31.5L3.33268 36.5ZM4.58268 4.41667H17.0827H14.9993H4.58268ZM27.4994 12.75C26.9091 12.75 26.4146 12.55 26.016 12.15C25.616 11.7514 25.416 11.2569 25.416 10.6667V8.58333H23.3327C22.7424 8.58333 22.248 8.38403 21.8493 7.98542C21.4494 7.58542 21.2494 7.09028 21.2494 6.5C21.2494 5.90972 21.4494 5.41458 21.8493 5.01458C22.248 4.61597 22.7424 4.41667 23.3327 4.41667H25.416V2.33333C25.416 1.74306 25.616 1.24792 26.016 0.847917C26.4146 0.449305 26.9091 0.25 27.4994 0.25C28.0896 0.25 28.5841 0.449305 28.9827 0.847917C29.3827 1.24792 29.5827 1.74306 29.5827 2.33333V4.41667H31.666C32.2563 4.41667 32.7507 4.61597 33.1494 5.01458C33.5494 5.41458 33.7494 5.90972 33.7494 6.5C33.7494 7.09028 33.5494 7.58542 33.1494 7.98542C32.7507 8.38403 32.2563 8.58333 31.666 8.58333H29.5827V10.6667C29.5827 11.2569 29.3827 11.7514 28.9827 12.15C28.5841 12.55 28.0896 12.75 27.4994 12.75Z" fill="#39007E"/>
</svg>
