<svg width="23" height="44" viewBox="0 0 23 44" fill="none" xmlns="http://www.w3.org/2000/svg">
<path d="M11.7609 2.15687C11.7331 1.32891 11.0394 0.680228 10.2114 0.707996C9.38348 0.735765 8.73479 1.42947 8.76256 2.25743L11.7609 2.15687ZM10.578 43.2803C11.1831 43.8461 12.1323 43.8143 12.6981 43.2092L21.9187 33.3486C22.4845 32.7435 22.4527 31.7943 21.8476 31.2285C21.2425 30.6627 20.2933 30.6945 19.7275 31.2996L11.5314 40.0645L2.76647 31.8685C2.16137 31.3026 1.21216 31.3345 0.646337 31.9396C0.0805143 32.5447 0.11235 33.4939 0.717443 34.0597L10.578 43.2803ZM8.76256 2.25743L10.1034 42.235L13.1017 42.1344L11.7609 2.15687L8.76256 2.25743Z" fill="#39007E"/>
</svg>
