<svg width="44" height="24" viewBox="0 0 44 24" fill="none" xmlns="http://www.w3.org/2000/svg">
<path d="M42.0017 13.5C42.8302 13.5 43.5017 12.8284 43.5017 12C43.5017 11.1716 42.8302 10.5 42.0017 10.5V13.5ZM0.941078 10.9393C0.355293 11.5251 0.355293 12.4749 0.941078 13.0607L10.487 22.6066C11.0728 23.1924 12.0226 23.1924 12.6083 22.6066C13.1941 22.0208 13.1941 21.0711 12.6083 20.4853L4.12306 12L12.6083 3.51472C13.1941 2.92893 13.1941 1.97919 12.6083 1.3934C12.0226 0.807611 11.0728 0.807611 10.487 1.3934L0.941078 10.9393ZM42.0017 10.5L2.00174 10.5V13.5L42.0017 13.5V10.5Z" fill="#39007E"/>
</svg>
