<svg width="51" height="60" viewBox="0 0 51 60" fill="none" xmlns="http://www.w3.org/2000/svg">
<path d="M25.5 30.5732C27.2531 30.5732 28.7544 29.974 30.0039 28.7755C31.2513 27.5791 31.875 26.1401 31.875 24.4586C31.875 22.7771 31.2513 21.3371 30.0039 20.1386C28.7544 18.9422 27.2531 18.3439 25.5 18.3439C23.7469 18.3439 22.2466 18.9422 20.9993 20.1386C19.7498 21.3371 19.125 22.7771 19.125 24.4586C19.125 26.1401 19.7498 27.5791 20.9993 28.7755C22.2466 29.974 23.7469 30.5732 25.5 30.5732ZM25.5 60C25.075 60 24.65 59.9236 24.225 59.7707C23.8 59.6178 23.4281 59.414 23.1094 59.1592C15.3531 52.586 9.5625 46.4846 5.7375 40.855C1.9125 35.2234 0 29.9618 0 25.0701C0 17.4268 2.56381 11.3376 7.69144 6.80255C12.8169 2.26752 18.7531 0 25.5 0C32.2469 0 38.1831 2.26752 43.3086 6.80255C48.4362 11.3376 51 17.4268 51 25.0701C51 29.9618 49.0875 35.2234 45.2625 40.855C41.4375 46.4846 35.6469 52.586 27.8906 59.1592C27.5719 59.414 27.2 59.6178 26.775 59.7707C26.35 59.9236 25.925 60 25.5 60Z" fill="#39007E"/>
</svg>
