<svg width="659" height="229" viewBox="0 0 659 229" fill="none" xmlns="http://www.w3.org/2000/svg">
<path d="M145.258 110.8C153.525 110.8 161.392 111.4 168.858 112.6C176.458 113.667 183.192 115.6 189.058 118.4C194.925 121.2 199.592 125 203.058 129.8C206.525 134.6 208.258 140.6 208.258 147.8C208.258 157.8 204.992 166.067 198.458 172.6C191.925 179.133 182.125 184 169.058 187.2C156.125 190.4 139.925 192 120.458 192C107.792 192 95.7918 191 84.4584 189C73.1251 187.133 63.0584 184.267 54.2584 180.4C45.5918 176.667 38.7251 172.133 33.6584 166.8C28.7251 161.467 26.2584 155.4 26.2584 148.6H70.2584C70.6584 150.467 73.1251 152.133 77.6584 153.6C82.1918 155.067 87.9251 156.2 94.8584 157C101.925 157.667 109.325 158 117.058 158C122.125 158 127.192 157.933 132.258 157.8C137.458 157.667 142.125 157.267 146.258 156.6C150.525 155.933 153.925 154.867 156.458 153.4C158.992 151.933 160.258 149.867 160.258 147.2C160.258 144.4 158.925 142.267 156.258 140.8C153.725 139.2 150.325 138.067 146.058 137.4C141.792 136.733 137.125 136.333 132.058 136.2C126.992 136.067 121.992 136 117.058 136C111.058 136 104.858 136.267 98.4584 136.8C92.0584 137.2 86.2584 137.733 81.0584 138.4C75.9918 138.933 72.1918 139.533 69.6584 140.2L30.0584 133.2L40.0584 58H191.858V96H83.2584L78.4584 131.2L72.0584 130.4C75.5251 127.2 80.9918 124.133 88.4584 121.2C95.9251 118.133 104.592 115.667 114.458 113.8C124.325 111.8 134.592 110.8 145.258 110.8ZM319.282 161C298.082 161 280.415 159.267 266.282 155.8C252.282 152.333 241.749 146.8 234.682 139.2C227.749 131.6 224.282 121.6 224.282 109.2C224.282 96.8 227.749 86.8 234.682 79.2C241.749 71.4667 252.282 65.8667 266.282 62.4C280.415 58.8 298.082 57 319.282 57C340.349 57 357.815 58.8 371.682 62.4C385.682 65.8667 396.149 71.4667 403.082 79.2C410.015 86.8 413.482 96.8 413.482 109.2C413.482 121.6 410.015 131.6 403.082 139.2C396.149 146.8 385.682 152.333 371.682 155.8C357.815 159.267 340.349 161 319.282 161ZM319.282 131C329.149 131 337.415 130.2 344.082 128.6C350.749 126.867 355.815 124.4 359.282 121.2C362.749 118 364.482 114 364.482 109.2C364.482 104.4 362.749 100.4 359.282 97.2C355.949 93.8667 350.949 91.3333 344.282 89.6C337.615 87.8667 329.349 87 319.482 87C309.482 87 301.015 87.8667 294.082 89.6C287.282 91.2 282.082 93.6667 278.482 97C275.015 100.333 273.282 104.4 273.282 109.2C273.282 114 275.015 118 278.482 121.2C281.949 124.4 287.082 126.867 293.882 128.6C300.815 130.2 309.282 131 319.282 131ZM530.563 161C509.363 161 491.696 159.267 477.563 155.8C463.563 152.333 453.03 146.8 445.963 139.2C439.03 131.6 435.563 121.6 435.563 109.2C435.563 96.8 439.03 86.8 445.963 79.2C453.03 71.4667 463.563 65.8667 477.563 62.4C491.696 58.8 509.363 57 530.563 57C551.63 57 569.096 58.8 582.963 62.4C596.963 65.8667 607.43 71.4667 614.363 79.2C621.296 86.8 624.763 96.8 624.763 109.2C624.763 121.6 621.296 131.6 614.363 139.2C607.43 146.8 596.963 152.333 582.963 155.8C569.096 159.267 551.63 161 530.563 161ZM530.563 131C540.43 131 548.696 130.2 555.363 128.6C562.03 126.867 567.096 124.4 570.563 121.2C574.03 118 575.763 114 575.763 109.2C575.763 104.4 574.03 100.4 570.563 97.2C567.23 93.8667 562.23 91.3333 555.563 89.6C548.896 87.8667 540.63 87 530.763 87C520.763 87 512.296 87.8667 505.363 89.6C498.563 91.2 493.363 93.6667 489.763 97C486.296 100.333 484.563 104.4 484.563 109.2C484.563 114 486.296 118 489.763 121.2C493.23 124.4 498.363 126.867 505.163 128.6C512.096 130.2 520.563 131 530.563 131Z" fill="#39007E"/>
<path d="M174.858 118.6L174.541 120.575L174.561 120.578L174.58 120.581L174.858 118.6ZM195.058 124.4L194.197 126.205L194.197 126.205L195.058 124.4ZM209.058 135.8L210.68 134.629L210.68 134.629L209.058 135.8ZM204.458 178.6L205.873 180.014L205.873 180.014L204.458 178.6ZM175.058 193.2L174.583 191.257L174.578 191.259L175.058 193.2ZM90.4584 195L90.806 193.03L90.7947 193.028L90.7835 193.027L90.4584 195ZM60.2584 186.4L61.063 184.569L61.0563 184.566L61.0497 184.563L60.2584 186.4ZM39.6584 172.8L38.1902 174.158L38.1993 174.168L38.2084 174.177L39.6584 172.8ZM32.2584 154.6V152.6H30.2584V154.6H32.2584ZM76.2584 154.6L78.214 154.181L77.8753 152.6H76.2584V154.6ZM83.6584 159.6L83.0428 161.503L83.0428 161.503L83.6584 159.6ZM100.858 163L100.629 164.987L100.65 164.989L100.671 164.991L100.858 163ZM138.258 163.8L138.207 161.801L138.206 161.801L138.258 163.8ZM152.258 162.6L151.95 160.624L151.94 160.626L152.258 162.6ZM162.458 159.4L161.456 157.669L161.456 157.669L162.458 159.4ZM162.258 146.8L161.19 148.491L161.242 148.523L161.295 148.552L162.258 146.8ZM152.058 143.4L152.367 141.424L152.367 141.424L152.058 143.4ZM138.058 142.2L138.111 140.201L138.111 140.201L138.058 142.2ZM104.458 142.8L104.583 144.796L104.604 144.795L104.625 144.793L104.458 142.8ZM87.0584 144.4L87.2678 146.389L87.2903 146.387L87.3128 146.384L87.0584 144.4ZM75.6584 146.2L75.3103 148.169L75.7427 148.246L76.1674 148.134L75.6584 146.2ZM36.0584 139.2L34.0759 138.936L33.8233 140.836L35.7103 141.169L36.0584 139.2ZM46.0584 64V62H44.3068L44.0759 63.7364L46.0584 64ZM197.858 64H199.858V62H197.858V64ZM197.858 102V104H199.858V102H197.858ZM89.2584 102V100H87.5126L87.2768 101.73L89.2584 102ZM84.4584 137.2L84.2104 139.185L86.1729 139.43L86.4401 137.47L84.4584 137.2ZM78.0584 136.4L76.7019 134.93L73.5384 137.851L77.8104 138.385L78.0584 136.4ZM94.4584 127.2L95.1897 129.061L95.204 129.056L95.2183 129.05L94.4584 127.2ZM120.458 119.8L120.83 121.765L120.843 121.763L120.856 121.76L120.458 119.8ZM151.258 118.8C159.429 118.8 167.189 119.393 174.541 120.575L175.176 116.625C167.595 115.407 159.622 114.8 151.258 114.8V118.8ZM174.58 120.581C182.014 121.624 188.544 123.507 194.197 126.205L195.92 122.595C189.839 119.693 182.903 117.709 175.136 116.619L174.58 120.581ZM194.197 126.205C199.792 128.875 204.185 132.469 207.437 136.971L210.68 134.629C206.998 129.531 202.059 125.525 195.92 122.595L194.197 126.205ZM207.437 136.971C210.608 141.362 212.258 146.928 212.258 153.8H216.258C216.258 146.272 214.442 139.838 210.68 134.629L207.437 136.971ZM212.258 153.8C212.258 163.318 209.17 171.06 203.044 177.186L205.873 180.014C212.814 173.073 216.258 164.282 216.258 153.8H212.258ZM203.044 177.186C196.862 183.368 187.446 188.107 174.583 191.257L175.534 195.143C188.804 191.893 198.989 186.898 205.873 180.014L203.044 177.186ZM174.578 191.259C161.856 194.406 145.83 196 126.458 196V200C146.02 200 162.394 198.394 175.539 195.141L174.578 191.259ZM126.458 196C113.897 196 102.014 195.008 90.806 193.03L90.1109 196.97C101.57 198.992 113.687 200 126.458 200V196ZM90.7835 193.027C79.5843 191.182 69.6834 188.357 61.063 184.569L59.4539 188.231C68.4335 192.177 78.6659 195.085 90.1334 196.973L90.7835 193.027ZM61.0497 184.563C52.564 180.908 45.9442 176.513 41.1084 171.423L38.2084 174.177C43.506 179.754 50.6195 184.426 59.4672 188.237L61.0497 184.563ZM41.1266 171.442C36.5096 166.451 34.2584 160.86 34.2584 154.6H30.2584C30.2584 161.94 32.9406 168.483 38.1902 174.158L41.1266 171.442ZM32.2584 156.6H76.2584V152.6H32.2584V156.6ZM74.3028 155.019C74.6581 156.677 75.8588 157.941 77.2887 158.907C78.7422 159.889 80.6908 160.742 83.0428 161.503L84.2741 157.697C82.0927 156.991 80.5413 156.277 79.5281 155.593C78.4913 154.892 78.2587 154.39 78.214 154.181L74.3028 155.019ZM83.0428 161.503C87.7451 163.024 93.6192 164.178 100.629 164.987L101.088 161.013C94.231 160.222 88.6384 159.109 84.2741 157.697L83.0428 161.503ZM100.671 164.991C107.805 165.664 115.268 166 123.058 166V162C115.382 162 108.045 161.669 101.046 161.009L100.671 164.991ZM123.058 166C128.143 166 133.227 165.933 138.311 165.799L138.206 161.801C133.157 161.934 128.108 162 123.058 162V166ZM138.31 165.799C143.579 165.664 148.337 165.258 152.577 164.574L151.94 160.626C147.913 161.275 143.338 161.669 138.207 161.801L138.31 165.799ZM152.567 164.576C156.973 163.888 160.637 162.765 163.461 161.131L161.456 157.669C159.213 158.968 156.077 159.979 151.95 160.624L152.567 164.576ZM163.461 161.131C166.538 159.349 168.258 156.661 168.258 153.2H164.258C164.258 155.072 163.445 156.518 161.456 157.669L163.461 161.131ZM168.258 153.2C168.258 151.469 167.842 149.86 166.954 148.44C166.072 147.029 164.792 145.911 163.222 145.048L161.295 148.552C162.391 149.156 163.111 149.838 163.562 150.56C164.008 151.274 164.258 152.131 164.258 153.2H168.258ZM163.326 145.109C160.484 143.314 156.794 142.116 152.367 141.424L151.75 145.376C155.856 146.018 158.966 147.086 161.19 148.491L163.326 145.109ZM152.367 141.424C148.003 140.742 143.249 140.336 138.111 140.201L138.006 144.199C143.001 144.331 147.581 144.725 151.75 145.376L152.367 141.424ZM138.111 140.201C133.027 140.067 128.01 140 123.058 140V144C127.974 144 132.956 144.066 138.006 144.199L138.111 140.201ZM123.058 140C116.999 140 110.744 140.269 104.292 140.807L104.625 144.793C110.973 144.264 117.118 144 123.058 144V140ZM104.334 140.804C97.8995 141.206 92.0554 141.743 86.8041 142.416L87.3128 146.384C92.4615 145.724 98.2174 145.194 104.583 144.796L104.334 140.804ZM86.8491 142.411C81.7569 142.947 77.8343 143.559 75.1494 144.266L76.1674 148.134C78.5492 147.507 82.2266 146.92 87.2678 146.389L86.8491 142.411ZM76.0066 144.231L36.4066 137.231L35.7103 141.169L75.3103 148.169L76.0066 144.231ZM38.041 139.464L48.041 64.2636L44.0759 63.7364L34.0759 138.936L38.041 139.464ZM46.0584 66H197.858V62H46.0584V66ZM195.858 64V102H199.858V64H195.858ZM197.858 100H89.2584V104H197.858V100ZM87.2768 101.73L82.4768 136.93L86.4401 137.47L91.2401 102.27L87.2768 101.73ZM84.7065 135.215L78.3065 134.415L77.8104 138.385L84.2104 139.185L84.7065 135.215ZM79.415 137.87C82.615 134.916 87.8153 131.959 95.1897 129.061L93.7271 125.338C86.1682 128.308 80.4352 131.484 76.7019 134.93L79.415 137.87ZM95.2183 129.05C102.534 126.045 111.066 123.612 120.83 121.765L120.087 117.835C110.118 119.721 101.316 122.221 93.6986 125.35L95.2183 129.05ZM120.856 121.76C130.584 119.788 140.717 118.8 151.258 118.8V114.8C140.466 114.8 130.066 115.812 120.061 117.84L120.856 121.76ZM272.282 161.8L271.801 163.741L271.805 163.742L272.282 161.8ZM240.682 145.2L239.204 146.548L239.211 146.555L239.217 146.562L240.682 145.2ZM240.682 85.2L239.205 83.8509L239.204 83.8521L240.682 85.2ZM272.282 68.4L272.763 70.3414L272.776 70.3381L272.282 68.4ZM377.682 68.4L377.179 70.3358L377.19 70.3387L377.201 70.3414L377.682 68.4ZM409.082 85.2L407.593 86.5351L407.599 86.5415L407.604 86.5479L409.082 85.2ZM377.682 161.8L377.201 159.859L377.197 159.86L377.682 161.8ZM350.082 134.6L350.549 136.545L350.567 136.54L350.585 136.536L350.082 134.6ZM365.282 127.2L363.925 125.73L363.925 125.73L365.282 127.2ZM365.282 103.2L363.868 104.614L363.896 104.642L363.925 104.67L365.282 103.2ZM350.282 95.6L349.779 97.5356L349.779 97.5356L350.282 95.6ZM300.082 95.6L300.54 97.5468L300.553 97.5437L300.567 97.5403L300.082 95.6ZM284.482 103L283.123 101.532L283.109 101.545L283.096 101.558L284.482 103ZM284.482 127.2L285.838 125.73L285.838 125.73L284.482 127.2ZM299.882 134.6L299.388 136.538L299.41 136.544L299.432 136.549L299.882 134.6ZM325.282 165C304.176 165 286.683 163.273 272.758 159.858L271.805 163.742C286.148 167.26 303.987 169 325.282 169V165ZM272.763 159.859C258.998 156.45 248.864 151.063 242.147 143.838L239.217 146.562C246.633 154.537 257.566 160.216 271.801 163.741L272.763 159.859ZM242.159 143.852C235.628 136.693 232.282 127.209 232.282 115.2H228.282C228.282 127.991 231.869 138.507 239.204 146.548L242.159 143.852ZM232.282 115.2C232.282 103.191 235.628 93.7068 242.159 86.5479L239.204 83.8521C231.869 91.8932 228.282 102.409 228.282 115.2H232.282ZM242.158 86.5491C248.876 79.1979 259.006 73.7478 272.763 70.3414L271.801 66.4586C257.558 69.9855 246.621 75.7355 239.205 83.8509L242.158 86.5491ZM272.776 70.3381C286.693 66.7932 304.18 65 325.282 65V61C303.983 61 286.138 62.8068 271.788 66.4619L272.776 70.3381ZM325.282 65C346.251 65 363.534 66.7933 377.179 70.3358L378.184 66.4642C364.096 62.8067 346.447 61 325.282 61V65ZM377.201 70.3414C390.958 73.7479 401.013 79.1958 407.593 86.5351L410.571 83.8649C403.284 75.7375 392.405 69.9854 378.163 66.4586L377.201 70.3414ZM407.604 86.5479C414.135 93.7068 417.482 103.191 417.482 115.2H421.482C421.482 102.409 417.895 91.8932 410.559 83.8521L407.604 86.5479ZM417.482 115.2C417.482 127.209 414.135 136.693 407.604 143.852L410.559 146.548C417.895 138.507 421.482 127.991 421.482 115.2H417.482ZM407.604 143.852C401.025 151.065 390.966 156.45 377.201 159.859L378.163 163.741C392.398 160.216 403.273 154.535 410.559 146.548L407.604 143.852ZM377.197 159.86C363.544 163.273 346.254 165 325.282 165V169C346.443 169 364.086 167.261 378.167 163.74L377.197 159.86ZM325.282 139C335.243 139 343.678 138.194 350.549 136.545L349.615 132.655C343.152 134.206 335.054 135 325.282 135V139ZM350.585 136.536C357.434 134.755 362.844 132.172 366.638 128.67L363.925 125.73C360.786 128.628 356.063 130.978 349.579 132.664L350.585 136.536ZM366.638 128.67C370.523 125.084 372.482 120.547 372.482 115.2H368.482C368.482 119.453 366.974 122.916 363.925 125.73L366.638 128.67ZM372.482 115.2C372.482 109.853 370.523 105.316 366.638 101.73L363.925 104.67C366.974 107.484 368.482 110.947 368.482 115.2H372.482ZM366.696 101.786C363.021 98.1105 357.648 95.4486 350.785 93.6644L349.779 97.5356C356.249 99.2181 360.876 101.623 363.868 104.614L366.696 101.786ZM350.785 93.6644C343.9 91.8743 335.452 91 325.482 91V95C335.245 95 343.33 95.859 349.779 97.5356L350.785 93.6644ZM325.482 91C315.378 91 306.738 91.8745 299.597 93.6597L300.567 97.5403C307.293 95.8588 315.586 95 325.482 95V91ZM299.624 93.6532C292.622 95.3007 287.062 97.8854 283.123 101.532L285.841 104.468C289.102 101.448 293.942 99.0993 300.54 97.5468L299.624 93.6532ZM283.096 101.558C279.238 105.268 277.282 109.855 277.282 115.2H281.282C281.282 110.945 282.793 107.399 285.868 104.442L283.096 101.558ZM277.282 115.2C277.282 120.547 279.24 125.084 283.125 128.67L285.838 125.73C282.79 122.916 281.282 119.453 281.282 115.2H277.282ZM283.125 128.67C286.926 132.178 292.411 134.76 299.388 136.538L300.376 132.662C293.753 130.974 288.971 128.622 285.838 125.73L283.125 128.67ZM299.432 136.549C306.559 138.193 315.186 139 325.282 139V135C315.377 135 307.071 134.207 300.332 132.651L299.432 136.549ZM483.563 161.8L483.082 163.741L483.087 163.742L483.563 161.8ZM451.963 145.2L450.486 146.548L450.492 146.555L450.498 146.562L451.963 145.2ZM451.963 85.2L450.487 83.8509L450.486 83.8521L451.963 85.2ZM483.563 68.4L484.044 70.3414L484.057 70.3381L483.563 68.4ZM588.963 68.4L588.461 70.3358L588.471 70.3387L588.482 70.3414L588.963 68.4ZM620.363 85.2L618.874 86.5351L618.88 86.5415L618.886 86.5479L620.363 85.2ZM588.963 161.8L588.482 159.859L588.478 159.86L588.963 161.8ZM561.363 134.6L561.83 136.545L561.848 136.54L561.866 136.536L561.363 134.6ZM576.563 127.2L575.207 125.73L575.207 125.73L576.563 127.2ZM576.563 103.2L575.149 104.614L575.177 104.642L575.207 104.67L576.563 103.2ZM561.563 95.6L561.06 97.5356L561.06 97.5356L561.563 95.6ZM511.363 95.6L511.821 97.5468L511.835 97.5437L511.848 97.5403L511.363 95.6ZM495.763 103L494.404 101.532L494.39 101.545L494.377 101.558L495.763 103ZM495.763 127.2L497.12 125.73L497.12 125.73L495.763 127.2ZM511.163 134.6L510.669 136.538L510.691 136.544L510.713 136.549L511.163 134.6ZM536.563 165C515.458 165 497.964 163.273 484.04 159.858L483.087 163.742C497.429 167.26 515.269 169 536.563 169V165ZM484.044 159.859C470.279 156.45 460.145 151.063 453.428 143.838L450.498 146.562C457.914 154.537 468.847 160.216 483.082 163.741L484.044 159.859ZM453.441 143.852C446.91 136.693 443.563 127.209 443.563 115.2H439.563C439.563 127.991 443.15 138.507 450.486 146.548L453.441 143.852ZM443.563 115.2C443.563 103.191 446.91 93.7068 453.441 86.5479L450.486 83.8521C443.15 91.8932 439.563 102.409 439.563 115.2H443.563ZM453.44 86.5491C460.157 79.1979 470.287 73.7478 484.044 70.3414L483.082 66.4586C468.839 69.9855 457.902 75.7355 450.487 83.8509L453.44 86.5491ZM484.057 70.3381C497.974 66.7932 515.462 65 536.563 65V61C515.265 61 497.419 62.8068 483.069 66.4619L484.057 70.3381ZM536.563 65C557.532 65 574.815 66.7933 588.461 70.3358L589.466 66.4642C575.378 62.8067 557.728 61 536.563 61V65ZM588.482 70.3414C602.24 73.7479 612.294 79.1958 618.874 86.5351L621.852 83.8649C614.566 75.7375 603.687 69.9854 589.444 66.4586L588.482 70.3414ZM618.886 86.5479C625.417 93.7068 628.763 103.191 628.763 115.2H632.763C632.763 102.409 629.176 91.8932 621.841 83.8521L618.886 86.5479ZM628.763 115.2C628.763 127.209 625.417 136.693 618.886 143.852L621.841 146.548C629.176 138.507 632.763 127.991 632.763 115.2H628.763ZM618.886 143.852C612.306 151.065 602.247 156.45 588.482 159.859L589.444 163.741C603.679 160.216 614.554 154.535 621.841 146.548L618.886 143.852ZM588.478 159.86C574.826 163.273 557.536 165 536.563 165V169C557.724 169 575.367 167.261 589.448 163.74L588.478 159.86ZM536.563 139C546.525 139 554.96 138.194 561.83 136.545L560.896 132.655C554.433 134.206 546.335 135 536.563 135V139ZM561.866 136.536C568.715 134.755 574.126 132.172 577.92 128.67L575.207 125.73C572.067 128.628 567.344 130.978 560.86 132.664L561.866 136.536ZM577.92 128.67C581.805 125.084 583.763 120.547 583.763 115.2H579.763C579.763 119.453 578.255 122.916 575.207 125.73L577.92 128.67ZM583.763 115.2C583.763 109.853 581.805 105.316 577.92 101.73L575.207 104.67C578.255 107.484 579.763 110.947 579.763 115.2H583.763ZM577.977 101.786C574.302 98.1105 568.929 95.4486 562.066 93.6644L561.06 97.5356C567.531 99.2181 572.158 101.623 575.149 104.614L577.977 101.786ZM562.066 93.6644C555.181 91.8743 546.733 91 536.763 91V95C546.526 95 554.611 95.859 561.06 97.5356L562.066 93.6644ZM536.763 91C526.659 91 518.019 91.8745 510.878 93.6597L511.848 97.5403C518.574 95.8588 526.867 95 536.763 95V91ZM510.905 93.6532C503.903 95.3007 498.343 97.8854 494.404 101.532L497.122 104.468C500.383 101.448 505.223 99.0993 511.821 97.5468L510.905 93.6532ZM494.377 101.558C490.519 105.268 488.563 109.855 488.563 115.2H492.563C492.563 110.945 494.074 107.399 497.149 104.442L494.377 101.558ZM488.563 115.2C488.563 120.547 490.522 125.084 494.407 128.67L497.12 125.73C494.071 122.916 492.563 119.453 492.563 115.2H488.563ZM494.407 128.67C498.208 132.178 503.692 134.76 510.669 136.538L511.657 132.662C505.034 130.974 500.252 128.622 497.12 125.73L494.407 128.67ZM510.713 136.549C517.84 138.193 526.468 139 536.563 139V135C526.659 135 518.353 134.207 511.613 132.651L510.713 136.549Z" fill="#39007E" fill-opacity="0.6"/>
</svg>
