<svg width="659" height="230" viewBox="0 0 659 230" fill="none" xmlns="http://www.w3.org/2000/svg">
<path d="M182.661 59V187H134.661V79.8L152.861 89.8L64.2608 146.6L60.8608 135H137.861V165H12.6608V135L134.661 59H182.661ZM179.461 165V135H215.461V165H179.461ZM326.411 161C305.211 161 287.544 159.267 273.411 155.8C259.411 152.333 248.877 146.8 241.811 139.2C234.877 131.6 231.411 121.6 231.411 109.2C231.411 96.8 234.877 86.8 241.811 79.2C248.877 71.4667 259.411 65.8667 273.411 62.4C287.544 58.8 305.211 57 326.411 57C347.477 57 364.944 58.8 378.811 62.4C392.811 65.8667 403.277 71.4667 410.211 79.2C417.144 86.8 420.611 96.8 420.611 109.2C420.611 121.6 417.144 131.6 410.211 139.2C403.277 146.8 392.811 152.333 378.811 155.8C364.944 159.267 347.477 161 326.411 161ZM326.411 131C336.277 131 344.544 130.2 351.211 128.6C357.877 126.867 362.944 124.4 366.411 121.2C369.877 118 371.611 114 371.611 109.2C371.611 104.4 369.877 100.4 366.411 97.2C363.077 93.8667 358.077 91.3333 351.411 89.6C344.744 87.8667 336.477 87 326.611 87C316.611 87 308.144 87.8667 301.211 89.6C294.411 91.2 289.211 93.6667 285.611 97C282.144 100.333 280.411 104.4 280.411 109.2C280.411 114 282.144 118 285.611 121.2C289.077 124.4 294.211 126.867 301.011 128.6C307.944 130.2 316.411 131 326.411 131ZM610.692 59V187H562.692V79.8L580.892 89.8L492.292 146.6L488.892 135H565.892V165H440.692V135L562.692 59H610.692ZM607.492 165V135H643.492V165H607.492Z" fill="#39007E"/>
<path d="M189.558 66H191.558V64H189.558V66ZM189.558 194V196H191.558V194H189.558ZM141.558 194H139.558V196H141.558V194ZM141.558 86.8L142.521 85.0472L139.558 83.4191V86.8H141.558ZM159.758 96.8L160.838 98.4837L163.671 96.6676L160.721 95.0472L159.758 96.8ZM71.1582 153.6L69.239 154.163L69.9899 156.725L72.2376 155.284L71.1582 153.6ZM67.7582 142V140H65.0879L65.839 142.563L67.7582 142ZM144.758 142H146.758V140H144.758V142ZM144.758 172V174H146.758V172H144.758ZM19.5582 172H17.5582V174H19.5582V172ZM19.5582 142L18.5007 140.302L17.5582 140.89V142H19.5582ZM141.558 66V64H140.986L140.501 64.3024L141.558 66ZM186.358 172H184.358V174H186.358V172ZM186.358 142V140H184.358V142H186.358ZM222.358 142H224.358V140H222.358V142ZM222.358 172V174H224.358V172H222.358ZM187.558 66V194H191.558V66H187.558ZM189.558 192H141.558V196H189.558V192ZM143.558 194V86.8H139.558V194H143.558ZM140.595 88.5528L158.795 98.5528L160.721 95.0472L142.521 85.0472L140.595 88.5528ZM158.679 95.1163L70.0788 151.916L72.2376 155.284L160.838 98.4837L158.679 95.1163ZM73.0775 153.037L69.6775 141.437L65.839 142.563L69.239 154.163L73.0775 153.037ZM67.7582 144H144.758V140H67.7582V144ZM142.758 142V172H146.758V142H142.758ZM144.758 170H19.5582V174H144.758V170ZM21.5582 172V142H17.5582V172H21.5582ZM20.6157 143.698L142.616 67.6976L140.501 64.3024L18.5007 140.302L20.6157 143.698ZM141.558 68H189.558V64H141.558V68ZM188.358 172V142H184.358V172H188.358ZM186.358 144H222.358V140H186.358V144ZM220.358 142V172H224.358V142H220.358ZM222.358 170H186.358V174H222.358V170ZM280.308 162.8L279.828 164.741L279.832 164.742L280.308 162.8ZM248.708 146.2L247.231 147.548L247.237 147.555L247.244 147.562L248.708 146.2ZM248.708 86.2L247.232 84.8509L247.231 84.8521L248.708 86.2ZM280.308 69.4L280.789 71.3414L280.802 71.3381L280.308 69.4ZM385.708 69.4L385.206 71.3358L385.217 71.3387L385.228 71.3414L385.708 69.4ZM417.108 86.2L415.619 87.5351L415.625 87.5415L415.631 87.5479L417.108 86.2ZM385.708 162.8L385.228 160.859L385.223 160.86L385.708 162.8ZM358.108 135.6L358.575 137.545L358.593 137.54L358.612 137.536L358.108 135.6ZM373.308 128.2L371.952 126.73L373.308 128.2ZM373.308 104.2L371.894 105.614L371.922 105.642L371.952 105.67L373.308 104.2ZM358.308 96.6L357.805 98.5356L358.308 96.6ZM308.108 96.6L308.566 98.5468L308.58 98.5437L308.593 98.5403L308.108 96.6ZM292.508 104L291.149 102.532L291.136 102.545L291.122 102.558L292.508 104ZM292.508 128.2L293.865 126.73L292.508 128.2ZM307.908 135.6L307.414 137.538L307.436 137.544L307.459 137.549L307.908 135.6ZM333.308 166C312.203 166 294.709 164.273 280.785 160.858L279.832 164.742C294.174 168.26 312.014 170 333.308 170V166ZM280.789 160.859C267.025 157.45 256.89 152.063 250.173 144.838L247.244 147.562C254.659 155.537 265.592 161.216 279.828 164.741L280.789 160.859ZM250.186 144.852C243.655 137.693 240.308 128.209 240.308 116.2H236.308C236.308 128.991 239.895 139.507 247.231 147.548L250.186 144.852ZM240.308 116.2C240.308 104.191 243.655 94.7068 250.186 87.5479L247.231 84.8521C239.895 92.8932 236.308 103.409 236.308 116.2H240.308ZM250.185 87.5491C256.902 80.1979 267.032 74.7478 280.789 71.3414L279.828 67.4586C265.584 70.9855 254.648 76.7355 247.232 84.8509L250.185 87.5491ZM280.802 71.3381C294.719 67.7932 312.207 66 333.308 66V62C312.01 62 294.164 63.8068 279.815 67.4619L280.802 71.3381ZM333.308 66C354.277 66 371.56 67.7933 385.206 71.3358L386.211 67.4642C372.123 63.8067 354.473 62 333.308 62V66ZM385.228 71.3414C398.985 74.7479 409.039 80.1958 415.619 87.5351L418.597 84.8649C411.311 76.7375 400.432 70.9854 386.189 67.4586L385.228 71.3414ZM415.631 87.5479C422.162 94.7068 425.508 104.191 425.508 116.2H429.508C429.508 103.409 425.922 92.8932 418.586 84.8521L415.631 87.5479ZM425.508 116.2C425.508 128.209 422.162 137.693 415.631 144.852L418.586 147.548C425.922 139.507 429.508 128.991 429.508 116.2H425.508ZM415.631 144.852C409.051 152.065 398.992 157.45 385.228 160.859L386.189 164.741C400.424 161.216 411.299 155.535 418.586 147.548L415.631 144.852ZM385.223 160.86C371.571 164.273 354.281 166 333.308 166V170C354.469 170 372.112 168.26 386.193 164.74L385.223 160.86ZM333.308 140C343.27 140 351.705 139.194 358.575 137.545L357.641 133.655C351.178 135.206 343.08 136 333.308 136V140ZM358.612 137.536C365.46 135.755 370.871 133.172 374.665 129.67L371.952 126.73C368.812 129.628 364.089 131.978 357.605 133.664L358.612 137.536ZM374.665 129.67C378.55 126.084 380.508 121.547 380.508 116.2H376.508C376.508 120.453 375 123.916 371.952 126.73L374.665 129.67ZM380.508 116.2C380.508 110.853 378.55 106.316 374.665 102.73L371.952 105.67C375 108.484 376.508 111.947 376.508 116.2H380.508ZM374.722 102.786C371.047 99.1105 365.674 96.4486 358.811 94.6644L357.805 98.5356C364.276 100.218 368.903 102.623 371.894 105.614L374.722 102.786ZM358.811 94.6644C351.927 92.8743 343.478 92 333.508 92V96C343.272 96 351.357 96.859 357.805 98.5356L358.811 94.6644ZM333.508 92C323.404 92 314.764 92.8745 307.623 94.6597L308.593 98.5403C315.319 96.8588 323.612 96 333.508 96V92ZM307.65 94.6532C300.648 96.3007 295.088 98.8854 291.149 102.532L293.867 105.468C297.128 102.448 301.968 100.099 308.566 98.5468L307.65 94.6532ZM291.122 102.558C287.264 106.268 285.308 110.855 285.308 116.2H289.308C289.308 111.945 290.819 108.399 293.894 105.442L291.122 102.558ZM285.308 116.2C285.308 121.547 287.267 126.084 291.152 129.67L293.865 126.73C290.816 123.916 289.308 120.453 289.308 116.2H285.308ZM291.152 129.67C294.953 133.178 300.437 135.76 307.414 137.538L308.402 133.662C301.779 131.974 296.997 129.622 293.865 126.73L291.152 129.67ZM307.459 137.549C314.585 139.193 323.213 140 333.308 140V136C323.404 136 315.098 135.207 308.358 133.651L307.459 137.549ZM617.589 66H619.589V64H617.589V66ZM617.589 194V196H619.589V194H617.589ZM569.589 194H567.589V196H569.589V194ZM569.589 86.8L570.553 85.0472L567.589 83.4191V86.8H569.589ZM587.789 96.8L588.869 98.4837L591.702 96.6676L588.753 95.0472L587.789 96.8ZM499.189 153.6L497.27 154.163L498.021 156.725L500.269 155.284L499.189 153.6ZM495.789 142V140H493.119L493.87 142.563L495.789 142ZM572.789 142H574.789V140H572.789V142ZM572.789 172V174H574.789V172H572.789ZM447.589 172H445.589V174H447.589V172ZM447.589 142L446.532 140.302L445.589 140.89V142H447.589ZM569.589 66V64H569.017L568.532 64.3024L569.589 66ZM614.389 172H612.389V174H614.389V172ZM614.389 142V140H612.389V142H614.389ZM650.389 142H652.389V140H650.389V142ZM650.389 172V174H652.389V172H650.389ZM615.589 66V194H619.589V66H615.589ZM617.589 192H569.589V196H617.589V192ZM571.589 194V86.8H567.589V194H571.589ZM568.626 88.5528L586.826 98.5528L588.753 95.0472L570.553 85.0472L568.626 88.5528ZM586.71 95.1163L498.11 151.916L500.269 155.284L588.869 98.4837L586.71 95.1163ZM501.109 153.037L497.709 141.437L493.87 142.563L497.27 154.163L501.109 153.037ZM495.789 144H572.789V140H495.789V144ZM570.789 142V172H574.789V142H570.789ZM572.789 170H447.589V174H572.789V170ZM449.589 172V142H445.589V172H449.589ZM448.647 143.698L570.647 67.6976L568.532 64.3024L446.532 140.302L448.647 143.698ZM569.589 68H617.589V64H569.589V68ZM616.389 172V142H612.389V172H616.389ZM614.389 144H650.389V140H614.389V144ZM648.389 142V172H652.389V142H648.389ZM650.389 170H614.389V174H650.389V170Z" fill="#39007E" fill-opacity="0.6"/>
</svg>
