<svg width="122" height="32" viewBox="0 0 122 32" fill="none" xmlns="http://www.w3.org/2000/svg">
<path d="M8.204 26L0.56 7.884H4.676L11.144 23.928L9.94 23.956L16.1 7.884H20.384L26.544 23.956L25.34 23.928L31.808 7.884H35.84L28.28 26H23.716L17.668 10.292H18.844L12.768 26H8.204ZM48.6192 21.38H52.1472C51.9978 22.332 51.5965 23.1813 50.9432 23.928C50.3085 24.6747 49.4405 25.2627 48.3392 25.692C47.2378 26.1213 45.8938 26.336 44.3072 26.336C42.5338 26.336 40.9658 26.056 39.6032 25.496C38.2405 24.9173 37.1765 24.0867 36.4112 23.004C35.6458 21.9213 35.2632 20.6147 35.2632 19.084C35.2632 17.5533 35.6365 16.2467 36.3832 15.164C37.1298 14.0627 38.1658 13.2227 39.4912 12.644C40.8352 12.0653 42.4032 11.776 44.1952 11.776C46.0245 11.776 47.5458 12.0653 48.7592 12.644C49.9725 13.2227 50.8685 14.1 51.4472 15.276C52.0445 16.4333 52.2965 17.9173 52.2032 19.728H38.9312C39.0245 20.4373 39.2858 21.0813 39.7152 21.66C40.1632 22.2387 40.7605 22.696 41.5072 23.032C42.2725 23.368 43.1778 23.536 44.2232 23.536C45.3805 23.536 46.3418 23.34 47.1072 22.948C47.8912 22.5373 48.3952 22.0147 48.6192 21.38ZM44.0272 14.548C42.6832 14.548 41.5912 14.8467 40.7512 15.444C39.9112 16.0227 39.3698 16.7413 39.1272 17.6H48.5912C48.4978 16.6667 48.0498 15.9293 47.2472 15.388C46.4632 14.828 45.3898 14.548 44.0272 14.548ZM67.3157 21.38H70.8437C70.6944 22.332 70.2931 23.1813 69.6397 23.928C69.0051 24.6747 68.1371 25.2627 67.0357 25.692C65.9344 26.1213 64.5904 26.336 63.0037 26.336C61.2304 26.336 59.6624 26.056 58.2997 25.496C56.9371 24.9173 55.8731 24.0867 55.1077 23.004C54.3424 21.9213 53.9597 20.6147 53.9597 19.084C53.9597 17.5533 54.3331 16.2467 55.0797 15.164C55.8264 14.0627 56.8624 13.2227 58.1877 12.644C59.5317 12.0653 61.0997 11.776 62.8917 11.776C64.7211 11.776 66.2424 12.0653 67.4557 12.644C68.6691 13.2227 69.5651 14.1 70.1437 15.276C70.7411 16.4333 70.9931 17.9173 70.8997 19.728H57.6277C57.7211 20.4373 57.9824 21.0813 58.4117 21.66C58.8597 22.2387 59.4571 22.696 60.2037 23.032C60.9691 23.368 61.8744 23.536 62.9197 23.536C64.0771 23.536 65.0384 23.34 65.8037 22.948C66.5877 22.5373 67.0917 22.0147 67.3157 21.38ZM62.7237 14.548C61.3797 14.548 60.2877 14.8467 59.4477 15.444C58.6077 16.0227 58.0664 16.7413 57.8237 17.6H67.2877C67.1944 16.6667 66.7464 15.9293 65.9437 15.388C65.1597 14.828 64.0864 14.548 62.7237 14.548ZM73.5803 6.484H77.2203V26H73.5803V6.484ZM88.9523 12.084L80.6643 19.392L80.7483 17.152L89.5963 26H84.9763L77.3043 18.188L83.9963 12.084H88.9523ZM91.5119 6.484H95.1519V26H91.5119V6.484ZM97.2934 12.084H101.157L107.177 25.44L104.041 26L97.2934 12.084ZM114.317 12.084L104.685 31.6H100.905L105.021 23.928L110.425 12.084H114.317Z" fill="#0F021F"/>
</svg>
