<svg width="19" height="14" viewBox="0 0 19 14" fill="none" xmlns="http://www.w3.org/2000/svg">
<path fill-rule="evenodd" clip-rule="evenodd" d="M13.5332 7.88489C14.7164 8.68807 15.5455 9.77625 15.5455 11.2272V13.8181H19V11.2272C19 9.34443 15.9168 8.23034 13.5332 7.88489Z" fill="#39007E"/>
<path d="M6.90962 6.90909C8.81751 6.90909 10.3642 5.36243 10.3642 3.45454C10.3642 1.54665 8.81751 0 6.90962 0C5.00173 0 3.45508 1.54665 3.45508 3.45454C3.45508 5.36243 5.00173 6.90909 6.90962 6.90909Z" fill="#39007E"/>
<path fill-rule="evenodd" clip-rule="evenodd" d="M12.0909 6.90909C13.9995 6.90909 15.5454 5.36318 15.5454 3.45454C15.5454 1.54591 13.9995 0 12.0909 0C11.685 0 11.305 0.0863634 10.9423 0.207272C11.6854 1.12637 12.0909 2.27257 12.0909 3.45454C12.0909 4.63651 11.6854 5.78272 10.9423 6.70181C11.305 6.82272 11.685 6.90909 12.0909 6.90909ZM6.90909 7.77272C4.60318 7.77272 0 8.92999 0 11.2273V13.8182H13.8182V11.2273C13.8182 8.92999 9.21499 7.77272 6.90909 7.77272Z" fill="#39007E"/>
</svg>
