<svg width="28" height="30" viewBox="0 0 28 30" fill="none" xmlns="http://www.w3.org/2000/svg">
<path d="M2.97999 29.7822C2.41323 30.0089 1.87481 29.959 1.36473 29.6326C0.854649 29.3072 0.599609 28.8329 0.599609 28.2094V3.59805C0.599609 2.6629 0.932862 1.86207 1.59937 1.19557C2.26474 0.530196 3.065 0.19751 4.00015 0.19751H14.2018V3.59805H4.00015V25.6165L12.5015 21.961L21.0028 25.6165V13.7997H24.4034V28.2094C24.4034 28.8329 24.1483 29.3072 23.6383 29.6326C23.1282 29.959 22.5898 30.0089 22.023 29.7822L12.5015 25.7015L2.97999 29.7822ZM4.00015 3.59805H14.2018H12.5015H4.00015ZM22.7031 10.3991C22.2214 10.3991 21.8178 10.2359 21.4925 9.90945C21.1661 9.58413 21.0028 9.1806 21.0028 8.69885V6.99859H19.3026C18.8208 6.99859 18.4173 6.83593 18.092 6.51061C17.7655 6.18416 17.6023 5.78006 17.6023 5.29832C17.6023 4.81657 17.7655 4.41248 18.092 4.08602C18.4173 3.76071 18.8208 3.59805 19.3026 3.59805H21.0028V1.89778C21.0028 1.41604 21.1661 1.01194 21.4925 0.685487C21.8178 0.360169 22.2214 0.19751 22.7031 0.19751C23.1848 0.19751 23.5884 0.360169 23.9137 0.685487C24.2401 1.01194 24.4034 1.41604 24.4034 1.89778V3.59805H26.1036C26.5854 3.59805 26.9889 3.76071 27.3142 4.08602C27.6407 4.41248 27.8039 4.81657 27.8039 5.29832C27.8039 5.78006 27.6407 6.18416 27.3142 6.51061C26.9889 6.83593 26.5854 6.99859 26.1036 6.99859H24.4034V8.69885C24.4034 9.1806 24.2401 9.58413 23.9137 9.90945C23.5884 10.2359 23.1848 10.3991 22.7031 10.3991Z" fill="#39007E"/>
</svg>
