<svg width="72" height="42" viewBox="0 0 72 42" fill="none" xmlns="http://www.w3.org/2000/svg">
<path d="M29.375 0.991997L31.167 8.92799C29.8017 9.61066 28.351 11.104 26.815 13.408C25.3643 15.712 24.511 18.2293 24.255 20.96L32.959 22.368V41.952H0.575V30.048C0.575 22.1973 2.83633 15.6693 7.359 10.464C11.967 5.25866 19.3057 2.10133 29.375 0.991997ZM68.159 0.991997L69.951 8.92799C68.5857 9.61066 67.135 11.104 65.599 13.408C64.1483 15.712 63.295 18.2293 63.039 20.96L71.743 22.368V41.952H39.359V30.048C39.359 22.1973 41.6203 15.6693 46.143 10.464C50.751 5.25866 58.0897 2.10133 68.159 0.991997Z" fill="#39007E"/>
</svg>
