<svg width="44" height="24" viewBox="0 0 44 24" fill="none" xmlns="http://www.w3.org/2000/svg">
<path d="M2.00171 10.5C1.17328 10.5 0.501709 11.1716 0.501709 12C0.501709 12.8284 1.17328 13.5 2.00171 13.5V10.5ZM43.0624 13.0607C43.6482 12.4749 43.6482 11.5251 43.0624 10.9393L33.5164 1.3934C32.9306 0.807611 31.9809 0.807611 31.3951 1.3934C30.8093 1.97919 30.8093 2.92893 31.3951 3.51472L39.8804 12L31.3951 20.4853C30.8093 21.0711 30.8093 22.0208 31.3951 22.6066C31.9809 23.1924 32.9306 23.1924 33.5164 22.6066L43.0624 13.0607ZM2.00171 13.5H42.0017V10.5H2.00171V13.5Z" fill="#39007E"/>
</svg>
