<svg width="30" height="39" viewBox="0 0 30 39" fill="none" xmlns="http://www.w3.org/2000/svg">
<path d="M15 0C6.72857 0 0 6.123 0 13.65C0 23.8875 15 39 15 39C15 39 30 23.8875 30 13.65C30 6.123 23.2714 0 15 0ZM15 3.9C15.5629 3.89987 16.1204 4.00065 16.6406 4.19657C17.1607 4.3925 17.6334 4.67973 18.0315 5.04188C18.4297 5.40403 18.7456 5.834 18.9611 6.30724C19.1767 6.78048 19.2877 7.28772 19.2879 7.8C19.288 8.31228 19.1773 8.81958 18.962 9.29291C18.7467 9.76625 18.431 10.1964 18.033 10.5587C17.6351 10.921 17.1626 11.2085 16.6425 11.4046C16.1225 11.6008 15.5651 11.7018 15.0021 11.702C13.8652 11.7022 12.7747 11.2915 11.9706 10.5601C11.1665 9.82868 10.7146 8.83655 10.7143 7.80195C10.714 6.76735 11.1654 5.77502 11.9691 5.04326C12.7728 4.3115 13.8631 3.90026 15 3.9ZM15 23.4C11.4214 23.4 8.27143 21.7425 6.42857 19.2075C6.47143 16.6335 12.15 15.21 15 15.21C17.85 15.21 23.5286 16.6335 23.5714 19.2075C22.6364 20.4979 21.3635 21.5567 19.8674 22.2885C18.3712 23.0203 16.6986 23.4022 15 23.4Z" fill="#39007E"/>
</svg>
