<svg width="16" height="20" viewBox="0 0 16 20" fill="none" xmlns="http://www.w3.org/2000/svg">
<path d="M8 0C3.58857 0 0 3.14 0 7C0 12.25 8 20 8 20C8 20 16 12.25 16 7C16 3.14 12.4114 0 8 0ZM8 2C8.30024 1.99993 8.59755 2.05161 8.87497 2.15209C9.15238 2.25256 9.40446 2.39986 9.61682 2.58558C9.82917 2.7713 9.99764 2.99179 10.1126 3.23448C10.2276 3.47717 10.2868 3.73729 10.2869 4C10.2869 4.26271 10.2279 4.52286 10.113 4.7656C9.99822 5.00833 9.82987 5.2289 9.61762 5.41471C9.40538 5.60052 9.15338 5.74793 8.87602 5.84853C8.59867 5.94912 8.30138 6.00093 8.00114 6.001C7.39478 6.00113 6.8132 5.79049 6.38433 5.41542C5.95546 5.04035 5.71444 4.53157 5.71429 4.001C5.71413 3.47043 5.95486 2.96155 6.38352 2.58629C6.81217 2.21103 7.39364 2.00013 8 2ZM8 12C6.09143 12 4.41143 11.15 3.42857 9.85C3.45143 8.53 6.48 7.8 8 7.8C9.52 7.8 12.5486 8.53 12.5714 9.85C12.0727 10.5118 11.3939 11.0547 10.5959 11.43C9.79796 11.8053 8.90592 12.0012 8 12Z" fill="#39007E"/>
</svg>
